<?xml version="1.0" encoding="utf-8"?>
<!-- Generator: Adobe Illustrator 24.0.0, SVG Export Plug-In . SVG Version: 6.00 Build 0)  -->
<svg version="1.1" id="Layer_1" xmlns="http://www.w3.org/2000/svg" xmlns:xlink="http://www.w3.org/1999/xlink" x="0px" y="0px"
	 viewBox="0 0 240 281.75" style="enable-background:new 0 0 240 281.75;" xml:space="preserve">
<style type="text/css">
	.st0{fill-rule:evenodd;clip-rule:evenodd;fill:#4DA2FF;}
</style>
<g transform="translate(45,45)">
<path class="st0" d="M120.05,79.95c7.8,9.8,12.5,22.25,12.5,35.75s-4.8,26.3-12.85,36.2l-0.7,0.85l-0.2-1.1c-0.15-0.9-0.35-1.85-0.55-2.8
	c-4-17.65-17.1-32.8-38.7-45.1c-14.55-8.25-22.9-18.2-25.1-29.5c-1.4-7.3-0.35-14.65,1.65-20.95c2.05-6.3,5.05-11.55,7.6-14.7
	l8.4-10.25c1.45-1.8,4.25-1.8,5.7,0L120.05,79.95L120.05,79.95z M133.3,69.7L77.1,1c-1.05-1.3-3.1-1.3-4.15,0L16.7,69.7l-0.2,0.25
	C6.2,82.8,0,99.1,0,116.85c0,41.35,33.6,74.9,75,74.9c41.4,0,75-33.55,75-74.9c0-17.75-6.2-34.05-16.55-46.9L133.3,69.7
	L133.3,69.7z M30.15,79.75l5-6.15l0.15,1.15c0.1,0.9,0.25,1.8,0.45,2.7c3.25,17.05,14.9,31.3,34.3,42.3c16.9,9.6,26.7,20.65,29.55,32.8
	c1.2,5.05,1.4,10.05,0.9,14.4l-0.05,0.25l-0.25,0.1c-7.6,3.7-16.2,5.8-25.25,5.8c-31.75,0-57.5-25.7-57.5-57.4
	C17.45,102.1,22.2,89.55,30.15,79.75L30.15,79.75z"/>
</g>
</svg>
